<!DOCTYPE svg PUBLIC "-//W3C//DTD SVG 20010904//EN" "http://www.w3.org/TR/2001/REC-SVG-20010904/DTD/svg10.dtd">
<svg version="1.0" xmlns="http://www.w3.org/2000/svg" width="44px" height="44px" viewBox="0 0 440 440" preserveAspectRatio="xMidYMid meet">
<g id="layer101" fill="#005bab" stroke="none">
 <path d="M125 406 c-68 -31 -124 -115 -125 -186 0 -120 95 -220 210 -220 115 0 210 99 210 221 0 53 -44 132 -92 165 -33 23 -53 29 -107 31 -41 2 -77 -2 -96 -11z"/>
 </g>
<g id="layer102" fill="#35b24d" stroke="none">
 <path d="M111 393 c-55 -29 -94 -79 -106 -138 l-6 -30 15 32 c18 40 70 73 114 73 40 0 40 -9 -1 -35 -66 -41 -83 -129 -36 -189 30 -39 130 -86 180 -86 81 0 159 113 146 212 -7 52 -48 129 -74 141 -13 6 -23 14 -23 18 0 12 -69 29 -115 29 -25 0 -62 -11 -94 -27z"/>
 </g>
<g id="layer103" fill="#039fdc" stroke="none">
 <path d="M84 375 c-32 -14 -84 -100 -84 -134 1 -9 7 -1 15 16 17 40 69 73 113 73 40 0 40 -9 -1 -35 -66 -41 -83 -129 -36 -189 30 -38 130 -86 178 -86 45 0 100 40 127 92 28 55 -12 123 -84 143 -30 9 -38 16 -45 47 -12 52 -47 80 -104 84 -27 2 -62 -3 -79 -11z m309 -234 c14 -14 -41 -53 -84 -58 l-43 -6 22 28 c12 15 22 36 22 46 0 15 4 16 38 7 20 -5 40 -13 45 -17z"/>
 </g>
<g id="layer104" fill="#9ccd5a" stroke="none">
 <path d="M84 375 c-32 -14 -84 -100 -84 -134 1 -9 7 -1 15 16 29 68 130 96 174 49 33 -35 26 -79 -13 -86 -35 -6 -71 -50 -62 -77 3 -10 28 -42 54 -71 45 -48 51 -52 95 -52 38 0 53 6 82 31 53 47 69 82 55 123 -14 42 -42 68 -88 81 -30 9 -38 16 -45 47 -12 52 -47 80 -104 84 -27 2 -62 -3 -79 -11z m309 -234 c14 -14 -41 -53 -84 -58 l-43 -6 22 28 c12 15 22 36 22 46 0 15 4 16 38 7 20 -5 40 -13 45 -17z"/>
 </g>
<g id="layer105" fill="#f4ec08" stroke="none">
 <path d="M84 375 c-22 -10 -40 -30 -58 -67 -14 -28 -26 -59 -26 -67 1 -9 7 -1 15 16 29 68 130 96 174 49 33 -35 26 -79 -13 -86 -35 -6 -71 -50 -62 -77 3 -10 28 -42 54 -71 45 -48 52 -52 94 -52 51 0 95 29 128 83 33 54 -13 147 -73 147 -33 0 -50 15 -54 47 -11 80 -92 116 -179 78z m237 -204 c19 -7 45 -17 58 -22 l24 -10 -23 -24 c-26 -27 -76 -41 -116 -31 -25 7 -25 8 -9 26 17 19 17 46 0 125 -5 25 -3 23 13 -11 14 -29 29 -44 53 -53z"/>
 </g>
<g id="layer106" fill="#54c8e7" stroke="none">
 <path d="M84 375 c-32 -14 -84 -100 -84 -134 1 -9 7 -1 15 16 29 68 130 96 174 49 33 -35 26 -79 -13 -86 -35 -6 -71 -50 -62 -77 3 -10 28 -42 54 -71 45 -48 51 -52 95 -52 38 0 53 6 82 31 20 18 43 46 52 63 l15 31 -29 -27 c-32 -31 -79 -44 -119 -34 -24 6 -25 8 -10 25 19 21 21 69 4 106 -8 17 -8 32 -1 48 12 28 0 78 -27 102 -26 23 -105 29 -146 10z"/>
 </g>
<g id="layer107" fill="#acd8b1" stroke="none">
 <path d="M85 376 c-30 -14 -66 -67 -80 -116 -6 -21 -4 -21 14 7 39 62 111 85 164 51 46 -31 37 -103 -17 -145 -31 -25 -31 -35 -3 -88 25 -46 57 -65 109 -65 43 0 98 42 125 94 l15 31 -29 -27 c-32 -31 -79 -44 -119 -34 -24 6 -25 8 -10 25 19 21 21 69 4 106 -8 17 -8 32 -1 48 12 28 0 78 -27 102 -25 23 -105 29 -145 11z"/>
 </g>
<g id="layer108" fill="#f9fcfb" stroke="none">
 <path d="M115 380 c-11 -4 -29 -10 -41 -14 -19 -7 -64 -71 -64 -91 0 -4 12 5 28 20 35 35 69 48 108 40 72 -13 87 -78 34 -151 -31 -43 -32 -48 -21 -85 14 -47 50 -73 100 -73 51 0 61 4 98 47 41 48 42 54 2 25 -42 -31 -104 -31 -130 1 -26 32 -24 71 6 127 14 26 25 56 25 66 0 67 -77 114 -145 88z"/>
 </g>

</svg>